mtllib materials.mtl
v 1.788023 -1.530016 -0.01667809
v 1.788023 -1.530016 0.1633217
v 1.788023 1.349984 0.1633222
v 1.788023 1.349984 -0.01667762
v -2.001976 -1.530016 -0.01667809
v -2.001976 1.349984 -0.01667762
v -2.001976 1.349984 0.1633222
v -2.001976 -1.530016 0.1633217
v 1.588023 -1.380016 -0.02667809
v 1.588023 -1.380016 0.1533217
v 1.588023 1.199984 0.1533222
v 1.588023 1.199984 -0.02667761
v -1.841977 -1.380016 -0.02667809
v -1.841977 1.199984 -0.02667761
v -1.841977 1.199984 0.1533222
v -1.841977 -1.380016 0.1533217
v 1.458023 -1.210016 -0.0366776
v 1.458023 -1.210016 0.1433222
v 1.458023 1.089984 0.1433222
v 1.458023 1.089984 -0.0366776
v -1.671977 -1.210016 -0.0366776
v -1.671977 1.089984 -0.0366776
v -1.671977 1.089984 0.1433222
v -1.671977 -1.210016 0.1433222
v 1.328023 -1.060016 -0.04667807
v 1.328023 -1.060016 0.133322
v 1.328023 0.979984 0.1333222
v 1.328023 0.979984 -0.04667783
v -1.511977 -1.060016 -0.04667854
v -1.511977 0.979984 -0.0466783
v -1.511977 0.979984 0.1333218
v -1.511977 -1.060016 0.1333215
v 1.20934 -0.9016161 -0.05899191
v 1.218023 -0.9000158 0.1233222
v 1.218023 0.8699841 0.1233222
v 1.20934 0.8683839 -0.05899191
v -1.36066 -0.9016161 -0.05899191
v -1.36066 0.8683839 -0.05899191
v -1.351977 0.8699841 0.1233222
v -1.351977 -0.9000158 0.1233222
v 1.118023 -0.770016 -0.06667781
v 1.118023 -0.770016 0.1133223
v 1.118023 0.769984 0.1133225
v 1.118023 0.769984 -0.06667757
v -1.201976 -0.770016 -0.06667781
v -1.201976 0.769984 -0.06667757
v -1.201976 0.769984 0.1133225
v -1.201976 -0.770016 0.1133223
v 1.028023 -0.6500156 -0.06667757
v 1.028023 -0.6500156 0.1133223
v 1.028023 0.6699846 0.1133223
v 1.028023 0.6699846 -0.06667757
v -1.081977 -0.6500156 -0.06667757
v -1.081977 0.6699846 -0.06667757
v -1.081977 0.6699846 0.1133223
v -1.081977 -0.6500156 0.1133223
v 0.9338939 -0.5611212 -0.07848811
v 0.9380233 -0.5600154 0.1033223
v 0.9380236 0.5899844 0.1033225
v 0.9338942 0.5888786 -0.07848787
v -0.946106 -0.561121 -0.07848811
v -0.9461057 0.5888789 -0.07848787
v -0.9419763 0.5899847 0.1033225
v -0.9419765 -0.5600152 0.1033223
v 0.8680234 -0.470016 -0.08667803
v 0.8680234 -0.470016 0.09332204
v 0.8680234 0.529984 0.09332204
v 0.8680234 0.529984 -0.08667779
v -0.8219767 -0.470016 -0.08667827
v -0.8219767 0.529984 -0.08667827
v -0.8219767 0.529984 0.0933218
v -0.8219767 -0.470016 0.09332156
v 0.7893744 -0.3870268 -0.08716559
v 0.7980232 -0.3900156 0.08332229
v 0.7980232 0.4499846 0.08332229
v 0.7893744 0.4529734 -0.08716559
v -0.7306257 -0.3870268 -0.08716559
v -0.7306257 0.4529734 -0.08716559
v -0.7219768 0.4499846 0.08332229
v -0.7219768 -0.3900156 0.08332229
v 0.7180231 -0.3200157 -0.09667778
v 0.7180231 -0.3200157 0.08332205
v 0.7180231 0.3599842 0.08332205
v 0.7180231 0.3599842 -0.09667778
v -0.6119769 -0.3200157 -0.09667778
v -0.6119769 0.3599842 -0.09667778
v -0.6119769 0.3599842 0.08332205
v -0.6119769 -0.3200157 0.08332205
v 0.6366358 -0.2361841 -0.1024268
v 0.6480234 -0.2400157 0.0733223
v 0.6480234 0.2899845 0.0733223
v 0.6366358 0.2938161 -0.1024268
v -0.5233641 -0.2361841 -0.1024268
v -0.5233641 0.2938161 -0.1024268
v -0.5119765 0.2899845 0.0733223
v -0.5119765 -0.2400157 0.0733223
v 0.5780745 -0.1636055 -0.1092722
v 0.5880232 -0.1700156 0.07332206
v 0.5880232 0.2199843 0.07332206
v 0.5780745 0.2263944 -0.1092722
v -0.4519253 -0.1636055 -0.1092722
v -0.4519253 0.2263944 -0.1092722
v -0.4419767 0.2199843 0.07332206
v -0.4419767 -0.1700156 0.07332206
v 0.5280232 -0.1100156 -0.1166775
v 0.5280232 -0.1100156 0.06332254
v 0.5280232 0.1599844 0.06332254
v 0.5280232 0.1599844 -0.1166775
v -0.3619766 -0.1100156 -0.1166778
v -0.3619766 0.1599844 -0.1166778
v -0.3619766 0.1599844 0.06332231
v -0.3619767 -0.1100156 0.06332231
v 0.4680235 -0.06001568 -0.1266775
v 0.4680235 -0.06001568 0.05332255
v 0.4680235 0.1199844 0.05332255
v 0.4680235 0.1199844 -0.1266775
v -0.3019764 -0.06001544 -0.1266778
v -0.3019764 0.1199846 -0.1266778
v -0.3019764 0.1199846 0.05332232
v -0.3019764 -0.06001544 0.05332232
v 0.4280233 -0.01001573 -0.1466775
v 0.4280233 -0.01001573 -0.04667759
v 0.4280233 0.08998418 -0.04667759
v 0.4280233 0.08998418 -0.1466775
v -0.2619767 -0.01001573 -0.1466775
v -0.2619767 0.08998418 -0.1466775
v -0.2619767 0.08998418 -0.04667759
v -0.2619767 -0.01001573 -0.04667759
v 0.3980234 0.009984255 -0.1566777
v 0.3980234 0.009984255 -0.09667778
v 0.3980234 0.0699842 -0.09667778
v 0.3980234 0.0699842 -0.1566777
v -0.2219765 0.009984255 -0.1566777
v -0.2219765 0.0699842 -0.1566777
v -0.2219765 0.0699842 -0.09667778
v -0.2219765 0.009984255 -0.09667778
vn 1 0 0
vn -1 0 0
vn 0 -1 -1.748456E-07
vn 0 1 1.748456E-07
vn 0 1.748456E-07 -1
vn 0 -1.748456E-07 1
vn 1 0 0
vn -1 0 0
vn 0 -1 -1.748456E-07
vn 0 1 1.748456E-07
vn 0 1.748456E-07 -1
vn 0 -1.748456E-07 1
vn 1 0 0
vn -1 0 0
vn 0 -1 0
vn 0 1 0
vn 0 0 -1
vn 0 0 1
vn 1 0 1.748456E-07
vn -1 0 -1.748456E-07
vn 3.057097E-14 -1 -1.748456E-07
vn -3.057097E-14 1 1.748456E-07
vn 1.748456E-07 1.748456E-07 -1
vn -1.748456E-07 -1.748456E-07 1
vn 0.9988678 -1.965425E-08 -0.04757441
vn -0.9988676 -4.110327E-08 0.04757506
vn -7.108223E-14 -0.9999614 0.008777563
vn -2.32202E-13 0.9999614 -0.008777112
vn 0 0 -1
vn 0 0 1
vn 1 0 0
vn -1 0 0
vn 0 -1 -1.748456E-07
vn 0 1 1.748456E-07
vn 0 1.748456E-07 -1
vn 0 -1.748456E-07 1
vn 1 0 0
vn -1 0 0
vn 0 -1 0
vn 0 1 0
vn 0 0 -1
vn 0 0 1
vn 0.9997422 -2.099141E-07 -0.0227072
vn -0.9997422 1.081736E-07 0.02270655
vn -1.431383E-07 -0.9999815 0.006081789
vn 1.74842E-07 0.9999815 -0.006082191
vn 0 1.748456E-07 -1
vn 0 -1.748456E-07 1
vn 1 0 1.748456E-07
vn -1 0 -1.748456E-07
vn 3.057097E-14 -1 -1.748456E-07
vn -3.057097E-14 1 1.748456E-07
vn 1.748456E-07 1.748456E-07 -1
vn -1.748456E-07 -1.748456E-07 1
vn 0.9987157 8.724521E-08 -0.05066495
vn -0.9987157 4.229613E-08 0.05066565
vn -1.833369E-13 -0.9998464 -0.01752826
vn 2.486186E-12 0.9998464 0.01752881
vn 0 0 -1
vn 0 0 1
vn 1 0 0
vn -1 0 0
vn 0 -1 0
vn 0 1 0
vn 0 0 -1
vn 0 0 1
vn 0.9979073 6.698796E-08 -0.0646593
vn -0.9979075 6.166406E-08 0.06465863
vn -1.839143E-12 -0.9997624 -0.02179606
vn -2.951993E-12 0.9997624 0.02179687
vn 0 0 -1
vn 0 0 1
vn 0.9985189 8.316761E-09 -0.05440537
vn -0.998519 -1.029806E-07 0.05440407
vn -3.095489E-12 -0.9993843 -0.03508445
vn 1.92502E-12 0.9993843 0.03508389
vn 0 0 -1
vn 0 0 1
vn 1 -1.748456E-07 1.748455E-07
vn -1 1.748456E-07 -1.748455E-07
vn -1.748455E-07 -1 -1.748456E-07
vn 1.748455E-07 1 1.748456E-07
vn 1.748456E-07 1.748456E-07 -1
vn -1.748456E-07 -1.748456E-07 1
vn 1 -1.748456E-07 1.748455E-07
vn -1 1.748456E-07 -1.748455E-07
vn -1.748455E-07 -1 -1.748456E-07
vn 1.748455E-07 1 1.748456E-07
vn 1.748456E-07 1.748456E-07 -1
vn -1.748456E-07 -1.748456E-07 1
vn 1 0 0
vn -1 0 0
vn 0 -1 0
vn 0 1 0
vn 0 0 -1
vn 0 0 1
vn 1 0 0
vn -1 0 0
vn 0 -1 0
vn 0 1 0
vn 0 0 -1
vn 0 0 1
usemtl mat23
f 4//1 3//1 2//1 1//1
f 8//2 7//2 6//2 5//2
f 2//3 8//3 5//3 1//3
f 6//4 7//4 3//4 4//4
f 5//5 6//5 4//5 1//5
f 3//6 7//6 8//6 2//6
usemtl mat17
f 12//7 11//7 10//7 9//7
f 16//8 15//8 14//8 13//8
f 10//9 16//9 13//9 9//9
f 14//10 15//10 11//10 12//10
f 13//11 14//11 12//11 9//11
f 11//12 15//12 16//12 10//12
f 60//43 59//43 58//43 57//43
f 64//44 63//44 62//44 61//44
f 58//45 64//45 61//45 57//45
f 62//46 63//46 59//46 60//46
f 61//47 62//47 60//47 57//47
f 59//48 63//48 64//48 58//48
f 108//79 107//79 106//79 105//79
f 112//80 111//80 110//80 109//80
f 106//81 112//81 109//81 105//81
f 110//82 111//82 107//82 108//82
f 109//83 110//83 108//83 105//83
f 107//84 111//84 112//84 106//84
usemtl mat16
f 20//13 19//13 18//13 17//13
f 24//14 23//14 22//14 21//14
f 18//15 24//15 21//15 17//15
f 22//16 23//16 19//16 20//16
f 21//17 22//17 20//17 17//17
f 19//18 23//18 24//18 18//18
f 52//37 51//37 50//37 49//37
f 56//38 55//38 54//38 53//38
f 50//39 56//39 53//39 49//39
f 54//40 55//40 51//40 52//40
f 53//41 54//41 52//41 49//41
f 51//42 55//42 56//42 50//42
f 68//49 67//49 66//49 65//49
f 72//50 71//50 70//50 69//50
f 66//51 72//51 69//51 65//51
f 70//52 71//52 67//52 68//52
f 69//53 70//53 68//53 65//53
f 67//54 71//54 72//54 66//54
f 100//73 99//73 98//73 97//73
f 104//74 103//74 102//74 101//74
f 98//75 104//75 101//75 97//75
f 102//76 103//76 99//76 100//76
f 101//77 102//77 100//77 97//77
f 99//78 103//78 104//78 98//78
f 116//85 115//85 114//85 113//85
f 120//86 119//86 118//86 117//86
f 114//87 120//87 117//87 113//87
f 118//88 119//88 115//88 116//88
f 117//89 118//89 116//89 113//89
f 115//90 119//90 120//90 114//90
usemtl mat15
f 28//19 27//19 26//19 25//19
f 32//20 31//20 30//20 29//20
f 26//21 32//21 29//21 25//21
f 30//22 31//22 27//22 28//22
f 29//23 30//23 28//23 25//23
f 27//24 31//24 32//24 26//24
f 44//31 43//31 42//31 41//31
f 48//32 47//32 46//32 45//32
f 42//33 48//33 45//33 41//33
f 46//34 47//34 43//34 44//34
f 45//35 46//35 44//35 41//35
f 43//36 47//36 48//36 42//36
f 76//55 75//55 74//55 73//55
f 80//56 79//56 78//56 77//56
f 74//57 80//57 77//57 73//57
f 78//58 79//58 75//58 76//58
f 77//59 78//59 76//59 73//59
f 75//60 79//60 80//60 74//60
f 92//67 91//67 90//67 89//67
f 96//68 95//68 94//68 93//68
f 90//69 96//69 93//69 89//69
f 94//70 95//70 91//70 92//70
f 93//71 94//71 92//71 89//71
f 91//72 95//72 96//72 90//72
f 124//91 123//91 122//91 121//91
f 128//92 127//92 126//92 125//92
f 122//93 128//93 125//93 121//93
f 126//94 127//94 123//94 124//94
f 125//95 126//95 124//95 121//95
f 123//96 127//96 128//96 122//96
usemtl mat21
f 36//25 35//25 34//25 33//25
f 40//26 39//26 38//26 37//26
f 34//27 40//27 37//27 33//27
f 38//28 39//28 35//28 36//28
f 37//29 38//29 36//29 33//29
f 35//30 39//30 40//30 34//30
f 84//61 83//61 82//61 81//61
f 88//62 87//62 86//62 85//62
f 82//63 88//63 85//63 81//63
f 86//64 87//64 83//64 84//64
f 85//65 86//65 84//65 81//65
f 83//66 87//66 88//66 82//66
f 132//97 131//97 130//97 129//97
f 136//98 135//98 134//98 133//98
f 130//99 136//99 133//99 129//99
f 134//100 135//100 131//100 132//100
f 133//101 134//101 132//101 129//101
f 131//102 135//102 136//102 130//102
