# Blender v2.78 (sub 0) OBJ File: '4.blend'
# www.blender.org
mtllib Wall_Painting_01.mtl
o Wall_Painting_01_Plane.002
v -0.088440 0.012052 4.402013
v -0.088441 0.012052 -4.402013
v -0.088440 10.052496 4.402013
v -0.088440 10.052496 -4.402013
v 0.550450 0.166386 4.266685
v 0.550449 0.166386 -4.266685
v 0.550450 9.898161 4.266685
v 0.550450 9.898161 -4.266685
v 0.566937 1.140036 3.412933
v 0.566936 1.140036 -3.412934
v 0.566937 8.924513 3.412934
v 0.566937 8.924513 -3.412934
v 0.070770 1.277447 3.292444
v 0.070770 1.277447 -3.292444
v 0.070771 8.787102 3.292444
v 0.070771 8.787102 -3.292444
v 0.345810 0.296462 4.302933
v 0.345810 0.296462 -2.243826
v 0.345810 3.523280 1.029553
v 0.398190 0.522863 1.614377
v 0.398190 0.522863 -4.400140
v 0.398190 4.728500 -1.078349
v 0.398190 3.827746 -0.501627
v 0.398190 3.741900 -1.857607
v 0.398187 3.378723 -0.792209
v 0.398187 3.668109 -1.101552
v 0.398187 3.358766 -1.420874
v 0.345810 2.968541 0.466810
v 0.345810 2.926410 1.635035
v 0.345810 2.645375 1.354783
v 0.345811 2.888793 1.059205
v 0.345810 2.680149 0.711465
v 0.125842 4.200577 2.762582
v 0.125842 4.294151 3.055001
v 0.125842 4.843899 3.078395
v 0.125842 4.855596 2.563737
v 0.125842 4.598267 3.148575
v 0.125842 4.937473 2.844460
v 0.125842 4.703538 2.458466
v 0.125842 4.972564 2.516950
v 0.125842 5.288376 2.446770
v 0.125842 5.452131 2.236228
v 0.125842 5.540127 1.958701
v 0.125842 5.452131 1.674404
v 0.125842 5.194910 1.478104
v 0.125842 4.924151 1.437491
v 0.125842 4.714314 1.511949
v 0.125842 4.829386 1.329187
v 0.125842 4.782004 1.099043
v 0.125842 4.633087 1.004277
v 0.125842 4.423249 1.065198
v 0.125842 4.585704 0.902743
v 0.125842 4.572165 0.665829
v 0.125842 4.477400 0.530450
v 0.125842 4.294639 0.523681
v 0.125842 4.206642 0.726750
v 0.398190 5.712487 -2.549459
v 0.398190 5.806061 -2.841878
v 0.398190 6.355809 -2.865272
v 0.398190 6.367506 -2.350614
v 0.398190 6.110177 -2.935452
v 0.398190 6.449383 -2.631336
v 0.398190 6.215448 -2.245343
v 0.398190 6.484473 -2.303827
v 0.398190 6.800286 -2.233647
v 0.398190 6.964041 -2.023105
v 0.398190 7.052037 -1.745577
v 0.398190 6.964041 -1.461282
v 0.398190 6.706820 -1.264982
v 0.398190 6.436062 -1.224368
v 0.398190 6.226223 -1.298826
v 0.398190 6.341296 -1.116064
v 0.398190 6.293914 -0.885920
v 0.398190 6.144996 -0.791155
v 0.398190 5.935159 -0.852075
v 0.398190 6.097614 -0.689620
v 0.398190 6.084076 -0.452706
v 0.398190 5.989310 -0.317327
v 0.398190 5.806548 -0.310558
v 0.398190 5.718552 -0.513627
v 0.398190 7.257237 1.409899
v 0.398190 7.133732 1.708065
v 0.398190 6.835566 1.831569
v 0.398190 6.537400 1.708065
v 0.398190 6.413896 1.409898
v 0.398190 6.537400 1.111732
v 0.398190 6.835566 0.988228
v 0.398190 7.133732 1.111732
v 0.398190 6.835566 1.409899
v 0.398190 6.780012 0.731460
v 0.398190 6.891121 0.731460
v 0.398190 6.316555 0.969453
v 0.398190 6.395121 0.890887
v 0.398190 6.157128 1.465453
v 0.398190 6.157128 1.354344
v 0.398190 6.395121 1.928910
v 0.398190 6.316555 1.850344
v 0.398190 6.891121 2.088337
v 0.398190 6.780012 2.088337
v 0.398190 7.354578 1.850344
v 0.398190 7.276012 1.928910
v 0.398190 7.514005 1.354344
v 0.398190 7.514005 1.465453
v 0.398190 7.276011 0.890887
v 0.398190 7.354578 0.969452
v 0.398190 6.835566 -0.056773
v 0.398190 5.798473 0.372805
v 0.398190 5.368895 1.409898
v 0.398190 5.798473 2.446992
v 0.398190 6.835566 2.876570
v 0.398190 7.872660 2.446992
v 0.398190 8.302239 1.409899
v 0.398190 7.872660 0.372805
v 0.496148 9.161266 3.620533
v 0.496148 9.161266 -3.620533
v 0.496148 0.903282 -3.620533
v 0.496148 0.903282 3.620533
v 0.550450 9.377256 -3.809925
v 0.550450 0.687292 3.809925
v 0.550450 9.377256 3.809925
v 0.550449 0.687292 -3.809925
vn -1.0000 0.0000 0.0000
vn 0.9581 0.2865 -0.0000
vn 0.2348 0.9720 -0.0000
vn 0.2348 -0.9720 -0.0000
vn 0.2072 -0.0000 -0.9783
vn 0.2072 -0.0000 0.9783
vn 0.2360 -0.0000 0.9718
vn 0.9581 -0.2865 -0.0000
vn 0.9465 -0.0000 -0.3227
vn 0.9465 -0.0000 0.3227
vn 0.2360 -0.0000 -0.9718
vn 0.2669 -0.9637 -0.0000
vn 0.2669 0.9637 0.0000
vn 0.9613 -0.0000 -0.2756
vn 0.9613 -0.0000 0.2756
vn 0.9698 0.2438 -0.0000
vn 0.9698 -0.2438 -0.0000
vn 1.0000 0.0000 -0.0000
usemtl 795548
s off
f 1//1 3//1 4//1 2//1
f 115//2 114//2 11//2 12//2
f 4//3 3//3 7//3 8//3
f 1//4 2//4 6//4 5//4
f 2//5 4//5 8//5 6//5
f 3//6 1//6 5//6 7//6
f 10//7 12//7 16//7 14//7
f 117//8 116//8 10//8 9//8
f 116//9 115//9 12//9 10//9
f 114//10 117//10 9//10 11//10
f 11//11 9//11 13//11 15//11
f 12//12 11//12 15//12 16//12
f 9//13 10//13 14//13 13//13
f 120//14 119//14 117//14 114//14
f 121//15 118//15 115//15 116//15
f 119//16 121//16 116//16 117//16
f 118//17 120//17 114//17 115//17
f 8//18 7//18 120//18 118//18
f 5//18 6//18 121//18 119//18
f 6//18 8//18 118//18 121//18
f 7//18 5//18 119//18 120//18
usemtl 039BE5
f 13//18 14//18 16//18 15//18
usemtl FFFFFF
f 23//18 25//18 26//18 22//18
f 29//18 30//18 31//18 19//18
f 22//18 26//18 27//18 24//18
f 19//18 31//18 32//18 28//18
f 54//18 53//18 56//18 55//18
f 53//18 52//18 56//18
f 52//18 51//18 56//18
f 56//18 51//18 33//18
f 50//18 49//18 51//18
f 49//18 48//18 51//18
f 48//18 47//18 51//18
f 51//18 47//18 33//18
f 39//18 47//18 46//18 40//18
f 40//18 46//18 45//18 41//18
f 41//18 45//18 44//18 42//18
f 43//18 42//18 44//18
f 47//18 39//18 33//18
f 33//18 39//18 36//18 34//18
f 34//18 36//18 38//18 37//18
f 35//18 37//18 38//18
f 78//18 79//18 80//18 77//18
f 77//18 80//18 76//18
f 76//18 80//18 75//18
f 80//18 57//18 75//18
f 74//18 75//18 73//18
f 73//18 75//18 72//18
f 72//18 75//18 71//18
f 75//18 57//18 71//18
f 63//18 64//18 70//18 71//18
f 64//18 65//18 69//18 70//18
f 65//18 66//18 68//18 69//18
f 67//18 68//18 66//18
f 71//18 57//18 63//18
f 57//18 58//18 60//18 63//18
f 58//18 61//18 62//18 60//18
f 59//18 62//18 61//18
usemtl 455A64
f 17//18 18//18 28//18 32//18 31//18 30//18 29//18
f 20//18 21//18 24//18 27//18 26//18 25//18 23//18
usemtl FFEB3B
f 84//18 89//18 83//18
f 82//18 89//18 81//18
f 81//18 89//18 88//18
f 87//18 89//18 86//18
f 85//18 89//18 84//18
f 83//18 89//18 82//18
f 88//18 89//18 87//18
f 86//18 89//18 85//18
usemtl FF9800
f 100//18 111//18 101//18
f 110//18 99//18 98//18
f 96//18 109//18 97//18
f 108//18 95//18 94//18
f 90//18 106//18 91//18
f 113//18 105//18 104//18
f 102//18 112//18 103//18
f 107//18 93//18 92//18
