# This file uses centimeters as units for non-parametric coordinates.

mtllib WallPainting_01.mtl
g default
v -64.673019 -3.970154 -74.715828
v 64.673019 -3.970154 -74.715828
v -64.673019 -3.970154 74.715828
v 64.673019 -3.970154 74.715828
v -64.673019 3.970154 74.715828
v 64.673019 3.970154 74.715828
v -64.673019 3.970154 -74.715828
v 64.673019 3.970154 -74.715828
v -55.912518 3.970154 64.594948
v 55.912518 3.970154 64.594948
v 55.912518 3.970154 -64.594948
v -55.912518 3.970154 -64.594948
v -55.912518 0.806305 64.594948
v 55.912518 0.806305 64.594948
v 55.912518 0.806305 -64.594948
v -55.912518 0.806305 -64.594948
v 57.770100 5.195221 66.740990
v -57.770092 5.195221 66.740990
v -57.770092 5.195221 -66.740982
v 57.770100 5.195221 -66.740982
v 62.492374 4.902466 72.196556
v -62.492367 4.902466 72.196556
v -62.492367 4.902466 -72.196564
v 62.492374 4.902466 -72.196564
v 61.752853 6.806915 71.342201
v -61.752850 6.806915 71.342201
v 58.832687 6.806915 67.968575
v -58.832684 6.806915 67.968575
v -61.752850 6.806915 -71.342201
v -58.832684 6.806915 -67.968575
v 61.752853 6.806915 -71.342201
v 58.832687 6.806915 -67.968575
v 47.330151 0.806305 47.387108
v -51.165821 0.806305 47.387108
v 47.330151 0.806305 -50.255997
v -51.165821 0.806305 -50.255997
v -44.736210 0.806305 39.654015
v 40.900536 0.806305 39.654015
v 40.900536 0.806305 -42.522896
v -44.736210 0.806305 -42.522896
v -35.785839 0.806305 30.745094
v -2.732498 0.806305 30.745094
v -2.732498 0.806305 -9.009232
v -35.785839 0.806305 -9.009224
v 36.273277 0.806305 -18.019798
v 36.273277 0.806305 9.516731
v 16.564354 0.806305 -18.023609
v 16.564354 0.806305 9.515877
v -36.859833 0.806305 -38.046818
v -10.313877 0.806305 -38.046818
v -36.860260 0.806305 -23.051914
v -10.301147 0.806305 -23.051918
vt 0.375000 0.000000
vt 0.625000 0.000000
vt 0.375000 0.250000
vt 0.625000 0.250000
vt 0.375000 0.500000
vt 0.625000 0.500000
vt 0.375000 0.750000
vt 0.625000 0.750000
vt 0.375000 1.000000
vt 0.625000 1.000000
vt 0.875000 0.000000
vt 0.875000 0.250000
vt 0.125000 0.000000
vt 0.125000 0.250000
vt 0.375000 0.500000
vt 0.625000 0.500000
vt 0.625000 0.750000
vt 0.375000 0.750000
vt 0.416667 0.520833
vt 0.583333 0.520833
vt 0.583333 0.729167
vt 0.395833 0.708333
vt 0.625000 0.500000
vt 0.375000 0.500000
vt 0.375000 0.750000
vt 0.625000 0.750000
vt 0.625000 0.500000
vt 0.375000 0.500000
vt 0.375000 0.750000
vt 0.625000 0.750000
vt 0.375000 0.500000
vt 0.625000 0.500000
vt 0.625000 0.500000
vt 0.375000 0.500000
vt 0.375000 0.750000
vt 0.375000 0.750000
vt 0.625000 0.750000
vt 0.625000 0.750000
vt 0.541667 0.583333
vt 0.458333 0.583333
vt 0.541667 0.666667
vt 0.458333 0.666667
vt 0.458333 0.583333
vt 0.541667 0.583333
vt 0.541667 0.666667
vt 0.458333 0.666667
vt 0.458333 0.583333
vt 0.541667 0.583333
vt 0.541667 0.666667
vt 0.458333 0.666667
vt 0.541667 0.583333
vt 0.541667 0.666667
vt 0.541667 0.666667
vt 0.541667 0.583333
vt 0.541667 0.666667
vt 0.458333 0.666667
vt 0.458333 0.666667
vt 0.541667 0.666667
vn 0.000000 0.000000 1.000000
vn 0.000000 0.000000 1.000000
vn 0.000000 0.000000 1.000000
vn 0.000000 0.000000 1.000000
vn 0.000000 0.000000 -1.000000
vn 0.000000 0.000000 -1.000000
vn 0.000000 0.000000 -1.000000
vn 0.000000 0.000000 -1.000000
vn 1.000000 0.000000 0.000000
vn 1.000000 0.000000 0.000000
vn 1.000000 0.000000 0.000000
vn 1.000000 0.000000 0.000000
vn -1.000000 0.000000 0.000000
vn -1.000000 0.000000 0.000000
vn -1.000000 0.000000 0.000000
vn -1.000000 0.000000 0.000000
vn 0.000000 0.937840 0.347068
vn 0.000000 0.937840 0.347068
vn 0.000000 0.937840 0.347068
vn 0.000000 0.937840 0.347068
vn 0.393118 0.919488 0.000000
vn 0.393118 0.919488 0.000000
vn 0.393118 0.919488 0.000000
vn 0.393118 0.919488 0.000000
vn 0.000000 0.937840 -0.347069
vn 0.000000 0.937840 -0.347069
vn 0.000000 0.937840 -0.347069
vn 0.000000 0.937840 -0.347069
vn -0.393117 0.919488 0.000000
vn -0.393117 0.919488 0.000000
vn -0.393117 0.919488 0.000000
vn -0.393117 0.919488 0.000000
vn 0.000000 0.000000 -1.000000
vn 0.000000 0.000000 -1.000000
vn 0.000000 0.000000 -1.000000
vn 0.000000 0.000000 -1.000000
vn -1.000000 0.000000 0.000000
vn -1.000000 0.000000 0.000000
vn -1.000000 0.000000 0.000000
vn -1.000000 0.000000 0.000000
vn 0.000000 0.000000 1.000000
vn 0.000000 0.000000 1.000000
vn 0.000000 0.000000 1.000000
vn 0.000000 0.000000 1.000000
vn 1.000000 0.000000 0.000000
vn 1.000000 0.000000 0.000000
vn 1.000000 0.000000 0.000000
vn 1.000000 0.000000 0.000000
vn 0.000000 0.868460 -0.495760
vn 0.000000 0.868460 -0.495760
vn 0.000000 0.868460 -0.495760
vn 0.000000 0.868460 -0.495760
vn 0.550552 0.834801 0.000000
vn 0.550552 0.834801 0.000000
vn 0.550552 0.834801 0.000000
vn 0.550552 0.834801 0.000000
vn 0.000000 0.868459 0.495761
vn 0.000000 0.868459 0.495761
vn 0.000000 0.868459 0.495761
vn 0.000000 0.868459 0.495761
vn -0.550550 0.834803 0.000000
vn -0.550550 0.834803 0.000000
vn -0.550550 0.834803 0.000000
vn -0.550550 0.834802 0.000000
vn 0.000000 1.000000 0.000000
vn 0.000000 1.000000 0.000000
vn 0.000000 1.000000 0.000000
vn 0.000000 1.000000 0.000000
vn 0.000000 1.000000 0.000000
vn 0.000000 1.000000 0.000000
vn 0.000000 1.000000 0.000000
vn 0.000000 1.000000 0.000000
vn 0.000000 1.000000 0.000000
vn 0.000000 1.000000 0.000000
vn 0.000000 1.000000 0.000000
vn 0.000000 1.000000 0.000000
vn 0.000000 1.000000 0.000000
vn 0.000000 1.000000 0.000000
vn 0.000000 1.000000 0.000000
vn 0.000000 1.000000 0.000000
vn 0.000000 0.409310 0.912396
vn 0.000000 0.409310 0.912396
vn 0.000000 0.409310 0.912396
vn 0.000000 0.409310 0.912396
vn 0.000000 0.605927 -0.795520
vn 0.000000 0.605927 -0.795520
vn 0.000000 0.605927 -0.795520
vn 0.000000 0.605927 -0.795520
vn -0.932186 0.361981 0.000000
vn -0.932186 0.361981 0.000000
vn -0.932186 0.361981 0.000000
vn -0.932186 0.361981 0.000000
vn 0.834876 0.550438 0.000000
vn 0.834876 0.550438 0.000000
vn 0.834876 0.550438 0.000000
vn 0.834876 0.550438 0.000000
vn 0.000000 0.409313 -0.912394
vn 0.000000 0.409313 -0.912394
vn 0.000000 0.409313 -0.912394
vn 0.000000 0.409313 -0.912394
vn 0.000000 0.605929 0.795519
vn 0.000000 0.605929 0.795519
vn 0.000000 0.605929 0.795519
vn 0.000000 0.605929 0.795519
vn 0.932186 0.361981 0.000000
vn 0.932186 0.361981 0.000000
vn 0.932186 0.361981 0.000000
vn 0.932186 0.361981 0.000000
vn -0.834878 0.550435 0.000000
vn -0.834878 0.550435 0.000000
vn -0.834878 0.550435 0.000000
vn -0.834878 0.550435 0.000000
vn 0.000000 -1.000000 0.000000
vn 0.000000 -1.000000 0.000000
vn 0.000000 -1.000000 0.000000
vn 0.000000 -1.000000 0.000000
vn 0.000000 1.000000 0.000000
vn 0.000000 1.000000 0.000000
vn 0.000000 1.000000 0.000000
vn 0.000000 1.000000 0.000000
vn 0.000000 1.000000 -0.000000
vn 0.000000 1.000000 -0.000000
vn 0.000000 1.000000 -0.000000
vn 0.000000 1.000000 -0.000000
vn 0.000000 1.000000 0.000000
vn 0.000000 1.000000 0.000000
vn 0.000000 1.000000 0.000000
vn 0.000000 1.000000 0.000000
vn 0.000000 1.000000 0.000000
vn 0.000000 1.000000 0.000000
vn 0.000000 1.000000 0.000000
vn 0.000000 1.000000 0.000000
vn 0.000000 1.000000 0.000000
vn 0.000000 1.000000 0.000000
vn 0.000000 1.000000 0.000000
vn 0.000000 1.000000 0.000000
vn 0.000000 1.000000 -0.000000
vn 0.000000 1.000000 -0.000000
vn 0.000000 1.000000 -0.000000
vn 0.000000 1.000000 -0.000000
vn 0.000000 1.000000 0.000000
vn 0.000000 1.000000 0.000000
vn 0.000000 1.000000 0.000000
vn 0.000000 1.000000 0.000000
vn 0.000000 1.000000 -0.000000
vn 0.000000 1.000000 -0.000000
vn 0.000000 1.000000 -0.000000
vn 0.000000 1.000000 -0.000000
vn 0.000000 1.000000 0.000000
vn 0.000000 1.000000 0.000000
vn 0.000000 1.000000 0.000000
vn 0.000000 1.000000 0.000000
vn 0.000000 1.000000 0.000000
vn 0.000000 1.000000 0.000000
vn 0.000000 1.000000 0.000000
vn 0.000000 1.000000 0.000000
vn 0.000000 1.000000 0.000000
vn 0.000000 1.000000 0.000000
vn 0.000000 1.000000 0.000000
vn 0.000000 1.000000 0.000000
vn 0.000000 1.000000 0.000000
vn 0.000000 1.000000 0.000000
vn 0.000000 1.000000 0.000000
vn 0.000000 1.000000 0.000000
vn 0.000000 1.000000 -0.000000
vn 0.000000 1.000000 -0.000000
vn 0.000000 1.000000 -0.000000
vn 0.000000 1.000000 -0.000000
vn 0.000000 1.000000 0.000000
vn 0.000000 1.000000 0.000000
vn 0.000000 1.000000 0.000000
vn 0.000000 1.000000 0.000000
vn 0.000000 1.000000 0.000000
vn 0.000000 1.000000 0.000000
vn 0.000000 1.000000 0.000000
vn 0.000000 1.000000 0.000000
vn 0.000000 1.000000 0.000000
vn 0.000000 1.000000 0.000000
vn 0.000000 1.000000 0.000000
vn 0.000000 1.000000 0.000000
vn 0.000000 1.000000 0.000000
vn 0.000000 1.000000 0.000000
vn 0.000000 1.000000 0.000000
vn 0.000000 1.000000 0.000000
vn 0.000000 1.000000 -0.000000
vn 0.000000 1.000000 -0.000000
vn 0.000000 1.000000 -0.000000
vn 0.000000 1.000000 -0.000000
vn 0.000000 1.000000 0.000000
vn 0.000000 1.000000 0.000000
vn 0.000000 1.000000 0.000000
vn 0.000000 1.000000 0.000000
s off
g pasted__pCube12 group
usemtl blinn10SG
f 4/4/1 6/6/2 5/5/3 3/3/4
f 8/8/5 2/10/6 1/9/7 7/7/8
f 2/2/9 8/11/10 6/12/11 4/4/12
f 7/13/13 1/1/14 3/3/15 5/14/16
f 6/6/17 21/27/18 22/28/19 5/5/20
f 8/8/21 24/30/22 21/27/23 6/6/24
f 24/30/25 8/8/26 7/7/27 23/29/28
f 23/29/29 7/7/30 5/5/31 22/28/32
f 10/16/33 14/20/34 13/19/35 9/15/36
f 11/17/37 15/21/38 14/20/39 10/16/40
f 15/21/41 11/17/42 12/18/43 16/22/44
f 16/22/45 12/18/46 9/15/47 13/19/48
f 18/24/49 17/23/50 10/16/51 9/15/52
f 12/18/53 19/25/54 18/24/55 9/15/56
f 11/17/57 20/26/58 19/25/59 12/18/60
f 20/26/61 11/17/62 10/16/63 17/23/64
f 25/32/65 27/33/66 28/34/67 26/31/68
f 30/36/69 29/35/70 26/31/71 28/34/72
f 32/38/73 31/37/74 29/35/75 30/36/76
f 31/37/77 32/38/78 27/33/79 25/32/80
f 21/27/81 25/32/82 26/31/83 22/28/84
f 27/33/85 17/23/86 18/24/87 28/34/88
f 29/35/89 23/29/90 22/28/91 26/31/92
f 19/25/93 30/36/94 28/34/95 18/24/96
f 31/37/97 24/30/98 23/29/99 29/35/100
f 20/26/101 32/38/102 30/36/103 19/25/104
f 24/30/105 31/37/106 25/32/107 21/27/108
f 32/38/109 20/26/110 17/23/111 27/33/112
f 1/1/113 2/2/114 4/4/115 3/3/116
s 1
usemtl blinn13SG
f 36/42/117 35/41/118 15/21/119 16/22/120
f 13/19/121 14/20/122 33/39/123 34/40/124
f 33/39/123 14/20/122 15/21/119 35/41/118
f 13/19/121 34/40/124 36/42/117 16/22/120
s off
usemtl blinn12SG
f 41/47/125 42/48/126 43/49/127 44/50/128
usemtl blinn11SG
f 34/40/129 33/39/130 38/44/131 37/43/132
f 33/39/133 35/41/134 39/45/135 38/44/136
f 35/41/137 36/42/138 40/46/139 39/45/140
f 36/42/141 34/40/142 37/43/143 40/46/144
usemtl blinn2SG
f 37/43/145 38/44/146 42/48/147 41/47/148
usemtl blinn9SG
f 46/51/149 45/52/150 47/53/151 48/54/152
usemtl blinn7SG
f 50/55/153 49/56/154 51/57/155 52/58/156
usemtl blinn2SG
f 40/46/157 37/43/158 41/47/159 44/50/160
f 38/44/161 39/45/162 45/52/163 46/51/164
f 39/45/165 43/49/166 47/53/167 45/52/168
f 43/49/169 42/48/170 48/54/171 47/53/172
f 42/48/173 38/44/174 46/51/175 48/54/176
f 39/45/177 40/46/178 49/56/179 50/55/180
f 40/46/181 44/50/182 51/57/183 49/56/184
f 44/50/185 43/49/186 52/58/187 51/57/188
f 43/49/189 39/45/190 50/55/191 52/58/192
